<svg width="31" height="18" viewBox="0 0 31 18" fill="none" xmlns="http://www.w3.org/2000/svg">
<g filter="url(#filter0_i_221_2)">
<path d="M0.864688 0.487999H5.66469V17H0.864688V0.487999ZM6.67269 13.328H6.86469C7.64869 13.328 8.20069 13.296 8.52069 13.232C8.85669 13.152 9.10469 12.976 9.26469 12.704C9.44069 12.416 9.53669 11.96 9.55269 11.336C9.58469 10.536 9.60069 9.672 9.60069 8.744C9.60069 7.832 9.58469 6.96 9.55269 6.128C9.52069 5.504 9.41669 5.048 9.24069 4.76C9.08069 4.472 8.81669 4.296 8.44869 4.232C8.08069 4.184 7.55269 4.16 6.86469 4.16H6.67269V0.487999H6.86469C8.14469 0.487999 9.20869 0.543999 10.0567 0.655999C10.9207 0.767999 11.6327 0.943999 12.1927 1.184C12.7367 1.424 13.1687 1.752 13.4887 2.168C13.8087 2.584 14.0407 3.104 14.1847 3.728C14.3127 4.288 14.3927 4.952 14.4247 5.72C14.4727 6.472 14.4967 7.48 14.4967 8.744C14.4967 10.024 14.4727 11.04 14.4247 11.792C14.3927 12.544 14.3127 13.2 14.1847 13.76C14.0407 14.384 13.8087 14.904 13.4887 15.32C13.1687 15.736 12.7367 16.064 12.1927 16.304C11.6327 16.544 10.9207 16.72 10.0567 16.832C9.20869 16.944 8.14469 17 6.86469 17H6.67269V13.328ZM17.1772 0.487999H21.9772V17H17.1772V0.487999ZM22.9852 13.328H23.9692C24.4172 13.328 24.7532 13.32 24.9772 13.304C25.2172 13.272 25.3932 13.208 25.5052 13.112C25.6172 13.016 25.6892 12.88 25.7212 12.704C25.7692 12.528 25.7932 12.272 25.7932 11.936C25.7932 11.584 25.7692 11.32 25.7212 11.144C25.6892 10.968 25.6172 10.832 25.5052 10.736C25.3132 10.576 24.8012 10.496 23.9692 10.496H22.9852V6.824H23.8252C24.2732 6.824 24.6092 6.816 24.8332 6.8C25.0732 6.768 25.2492 6.704 25.3612 6.608C25.4732 6.512 25.5452 6.384 25.5772 6.224C25.6252 6.048 25.6492 5.808 25.6492 5.504C25.6492 5.184 25.6252 4.944 25.5772 4.784C25.5452 4.608 25.4732 4.472 25.3612 4.376C25.2492 4.28 25.0732 4.224 24.8332 4.208C24.6092 4.176 24.2732 4.16 23.8252 4.16H22.9852V0.487999H25.7212C28.9372 0.487999 30.5452 1.872 30.5452 4.64C30.5452 5.808 30.3132 6.688 29.8492 7.28C29.4012 7.872 28.6812 8.288 27.6892 8.528V8.624C28.7292 8.864 29.4732 9.24 29.9212 9.752C30.4332 10.36 30.6892 11.304 30.6892 12.584C30.6892 14.056 30.2972 15.16 29.5132 15.896C28.7292 16.632 27.4732 17 25.7452 17H22.9852V13.328Z" fill="#4361EE"/>
</g>
<path d="M0.864688 0.487999V0.422999H0.799688V0.487999H0.864688ZM5.66469 0.487999H5.72969V0.422999H5.66469V0.487999ZM5.66469 17V17.065H5.72969V17H5.66469ZM0.864688 17H0.799688V17.065H0.864688V17ZM6.67269 13.328V13.263H6.60769V13.328H6.67269ZM8.52069 13.232L8.53344 13.2958L8.53574 13.2952L8.52069 13.232ZM9.26469 12.704L9.20922 12.6701L9.20866 12.671L9.26469 12.704ZM9.55269 11.336L9.48773 11.3334L9.48771 11.3343L9.55269 11.336ZM9.55269 6.128L9.61765 6.1255L9.6176 6.12467L9.55269 6.128ZM9.24069 4.76L9.18382 4.79159L9.18522 4.79389L9.24069 4.76ZM8.44869 4.232L8.45984 4.1679L8.45709 4.16755L8.44869 4.232ZM6.67269 4.16H6.60769V4.225H6.67269V4.16ZM6.67269 0.487999V0.422999H6.60769V0.487999H6.67269ZM10.0567 0.655999L10.0482 0.720439L10.0483 0.720459L10.0567 0.655999ZM12.1927 1.184L12.2189 1.12453L12.2183 1.12425L12.1927 1.184ZM14.1847 3.728L14.2481 3.71352L14.248 3.71338L14.1847 3.728ZM14.4247 5.72L14.3597 5.72271L14.3598 5.72414L14.4247 5.72ZM14.4247 11.792L14.3598 11.7879L14.3597 11.7892L14.4247 11.792ZM14.1847 13.76L14.248 13.7746L14.2481 13.7745L14.1847 13.76ZM13.4887 15.32L13.5402 15.3596L13.5402 15.3596L13.4887 15.32ZM12.1927 16.304L12.2183 16.3637L12.2189 16.3635L12.1927 16.304ZM10.0567 16.832L10.0483 16.7675L10.0482 16.7676L10.0567 16.832ZM6.67269 17H6.60769V17.065H6.67269V17ZM0.864688 0.487999V0.552999H5.66469V0.487999V0.422999H0.864688V0.487999ZM5.66469 0.487999H5.59969V17H5.66469H5.72969V0.487999H5.66469ZM5.66469 17V16.935H0.864688V17V17.065H5.66469V17ZM0.864688 17H0.929688V0.487999H0.864688H0.799688V17H0.864688ZM6.67269 13.328V13.393H6.86469V13.328V13.263H6.67269V13.328ZM6.86469 13.328V13.393C7.64869 13.393 8.20647 13.3611 8.53344 13.2957L8.52069 13.232L8.50794 13.1683C8.1949 13.2309 7.64869 13.263 6.86469 13.263V13.328ZM8.52069 13.232L8.53574 13.2952C8.88715 13.2116 9.15085 13.0257 9.32071 12.737L9.26469 12.704L9.20866 12.671C9.05853 12.9263 8.82623 13.0924 8.50563 13.1688L8.52069 13.232ZM9.26469 12.704L9.32015 12.7379C9.50526 12.435 9.60158 11.9649 9.61767 11.3377L9.55269 11.336L9.48771 11.3343C9.47179 11.9551 9.37612 12.397 9.20922 12.6701L9.26469 12.704ZM9.55269 11.336L9.61764 11.3386C9.64968 10.5376 9.66569 9.67273 9.66569 8.744H9.60069H9.53569C9.53569 9.67127 9.5197 10.5344 9.48774 11.3334L9.55269 11.336ZM9.60069 8.744H9.66569C9.66569 7.83124 9.64967 6.95841 9.61764 6.1255L9.55269 6.128L9.48774 6.1305C9.5197 6.96159 9.53569 7.83275 9.53569 8.744H9.60069ZM9.55269 6.128L9.6176 6.12467C9.58545 5.49761 9.4808 5.02825 9.29615 4.7261L9.24069 4.76L9.18522 4.79389C9.35258 5.06774 9.45593 5.51039 9.48777 6.13133L9.55269 6.128ZM9.24069 4.76L9.29751 4.72843C9.12662 4.42083 8.84425 4.23482 8.45982 4.16796L8.44869 4.232L8.43755 4.29604C8.78912 4.35718 9.03476 4.52317 9.18387 4.79157L9.24069 4.76ZM8.44869 4.232L8.45709 4.16755C8.08488 4.119 7.55356 4.095 6.86469 4.095V4.16V4.225C7.55182 4.225 8.07649 4.249 8.44028 4.29645L8.44869 4.232ZM6.86469 4.16V4.095H6.67269V4.16V4.225H6.86469V4.16ZM6.67269 4.16H6.73769V0.487999H6.67269H6.60769V4.16H6.67269ZM6.67269 0.487999V0.552999H6.86469V0.487999V0.422999H6.67269V0.487999ZM6.86469 0.487999V0.552999C8.14309 0.552999 9.20401 0.608946 10.0482 0.720439L10.0567 0.655999L10.0652 0.591558C9.21336 0.479052 8.14629 0.422999 6.86469 0.422999V0.487999ZM10.0567 0.655999L10.0483 0.720459C10.9087 0.831991 11.6144 1.00687 12.1671 1.24374L12.1927 1.184L12.2183 1.12425C11.651 0.881124 10.9327 0.704008 10.065 0.591538L10.0567 0.655999ZM12.1927 1.184L12.1665 1.24347C12.7018 1.47967 13.1246 1.80135 13.4372 2.20763L13.4887 2.168L13.5402 2.12837C13.2127 1.70265 12.7715 1.36833 12.2189 1.12453L12.1927 1.184ZM13.4887 2.168L13.4372 2.20763C13.7504 2.61479 13.979 3.12575 14.1214 3.74262L14.1847 3.728L14.248 3.71338C14.1024 3.08225 13.867 2.55321 13.5402 2.12837L13.4887 2.168ZM14.1847 3.728L14.1213 3.74248C14.2482 4.29757 14.3279 4.95743 14.3597 5.72271L14.4247 5.72L14.4896 5.71729C14.4575 4.94657 14.3772 4.27843 14.2481 3.71352L14.1847 3.728ZM14.4247 5.72L14.3598 5.72414C14.4077 6.47415 14.4317 7.48059 14.4317 8.744H14.4967H14.5617C14.5617 7.47941 14.5377 6.46985 14.4896 5.71586L14.4247 5.72ZM14.4967 8.744H14.4317C14.4317 10.0234 14.4077 11.0379 14.3598 11.7879L14.4247 11.792L14.4896 11.7961C14.5377 11.0421 14.5617 10.0246 14.5617 8.744H14.4967ZM14.4247 11.792L14.3597 11.7892C14.3279 12.5384 14.2482 13.1903 14.1213 13.7455L14.1847 13.76L14.2481 13.7745C14.3772 13.2097 14.4575 12.5496 14.4896 11.7948L14.4247 11.792ZM14.1847 13.76L14.1214 13.7454C13.979 14.3623 13.7504 14.8732 13.4372 15.2804L13.4887 15.32L13.5402 15.3596C13.867 14.9348 14.1024 14.4057 14.248 13.7746L14.1847 13.76ZM13.4887 15.32L13.4372 15.2804C13.1246 15.6867 12.7018 16.0083 12.1665 16.2445L12.1927 16.304L12.2189 16.3635C12.7715 16.1197 13.2127 15.7853 13.5402 15.3596L13.4887 15.32ZM12.1927 16.304L12.1671 16.2443C11.6144 16.4811 10.9087 16.656 10.0483 16.7675L10.0567 16.832L10.065 16.8965C10.9327 16.784 11.651 16.6069 12.2183 16.3637L12.1927 16.304ZM10.0567 16.832L10.0482 16.7676C9.20401 16.8791 8.14309 16.935 6.86469 16.935V17V17.065C8.14629 17.065 9.21336 17.0089 10.0652 16.8964L10.0567 16.832ZM6.86469 17V16.935H6.67269V17V17.065H6.86469V17ZM6.67269 17H6.73769V13.328H6.67269H6.60769V17H6.67269ZM17.1772 0.487999V0.422999H17.1122V0.487999H17.1772ZM21.9772 0.487999H22.0422V0.422999H21.9772V0.487999ZM21.9772 17V17.065H22.0422V17H21.9772ZM17.1772 17H17.1122V17.065H17.1772V17ZM22.9852 13.328V13.263H22.9202V13.328H22.9852ZM24.9772 13.304L24.9818 13.369L24.9858 13.3684L24.9772 13.304ZM25.5052 13.112L25.5475 13.1614L25.5475 13.1614L25.5052 13.112ZM25.7212 12.704L25.6582 12.6868L25.6572 12.6924L25.7212 12.704ZM25.7212 11.144L25.657 11.1557L25.6585 11.1611L25.7212 11.144ZM25.5052 10.736L25.5475 10.6866L25.5468 10.6861L25.5052 10.736ZM22.9852 10.496H22.9202V10.561H22.9852V10.496ZM22.9852 6.824V6.759H22.9202V6.824H22.9852ZM24.8332 6.8L24.8378 6.86496L24.8418 6.86443L24.8332 6.8ZM25.3612 6.608L25.3189 6.55865L25.3189 6.55865L25.3612 6.608ZM25.5772 6.224L25.5143 6.20686L25.5135 6.21125L25.5772 6.224ZM25.5772 4.784L25.5128 4.7957L25.5149 4.80268L25.5772 4.784ZM24.8332 4.208L24.824 4.27253L24.8289 4.27285L24.8332 4.208ZM22.9852 4.16H22.9202V4.225H22.9852V4.16ZM22.9852 0.487999V0.422999H22.9202V0.487999H22.9852ZM29.8492 7.28L29.798 7.2399L29.7974 7.24078L29.8492 7.28ZM27.6892 8.528L27.6739 8.46482L27.6242 8.47685V8.528H27.6892ZM27.6892 8.624H27.6242V8.67571L27.6746 8.68734L27.6892 8.624ZM29.9212 9.752L29.9709 9.71012L29.9701 9.7092L29.9212 9.752ZM29.5132 15.896L29.5577 15.9434L29.5577 15.9434L29.5132 15.896ZM22.9852 17H22.9202V17.065H22.9852V17ZM17.1772 0.487999V0.552999H21.9772V0.487999V0.422999H17.1772V0.487999ZM21.9772 0.487999H21.9122V17H21.9772H22.0422V0.487999H21.9772ZM21.9772 17V16.935H17.1772V17V17.065H21.9772V17ZM17.1772 17H17.2422V0.487999H17.1772H17.1122V17H17.1772ZM22.9852 13.328V13.393H23.9692V13.328V13.263H22.9852V13.328ZM23.9692 13.328V13.393C24.4175 13.393 24.7554 13.385 24.9818 13.3688L24.9772 13.304L24.9726 13.2392C24.751 13.255 24.4168 13.263 23.9692 13.263V13.328ZM24.9772 13.304L24.9858 13.3684C25.231 13.3357 25.4216 13.2692 25.5475 13.1614L25.5052 13.112L25.4629 13.0626C25.3648 13.1468 25.2033 13.2083 24.9686 13.2396L24.9772 13.304ZM25.5052 13.112L25.5475 13.1614C25.6731 13.0537 25.7511 12.9031 25.7851 12.7156L25.7212 12.704L25.6572 12.6924C25.6273 12.8569 25.5613 12.9783 25.4629 13.0626L25.5052 13.112ZM25.7212 12.704L25.7839 12.7211C25.8342 12.5367 25.8582 12.2738 25.8582 11.936H25.7932H25.7282C25.7282 12.2702 25.7042 12.5193 25.6585 12.6869L25.7212 12.704ZM25.7932 11.936H25.8582C25.8582 11.5825 25.8342 11.3115 25.7839 11.1269L25.7212 11.144L25.6585 11.1611C25.7041 11.3285 25.7282 11.5855 25.7282 11.936H25.7932ZM25.7212 11.144L25.7851 11.1324C25.7511 10.9449 25.6731 10.7943 25.5475 10.6866L25.5052 10.736L25.4629 10.7854C25.5613 10.8697 25.6273 10.9911 25.6572 11.1556L25.7212 11.144ZM25.5052 10.736L25.5468 10.6861C25.4363 10.594 25.2448 10.532 24.9872 10.4918C24.7265 10.451 24.3868 10.431 23.9692 10.431V10.496V10.561C24.3836 10.561 24.7158 10.581 24.9672 10.6202C25.2216 10.66 25.3821 10.718 25.4636 10.7859L25.5052 10.736ZM23.9692 10.496V10.431H22.9852V10.496V10.561H23.9692V10.496ZM22.9852 10.496H23.0502V6.824H22.9852H22.9202V10.496H22.9852ZM22.9852 6.824V6.889H23.8252V6.824V6.759H22.9852V6.824ZM23.8252 6.824V6.889C24.2735 6.889 24.6114 6.88101 24.8378 6.86483L24.8332 6.8L24.8286 6.73516C24.607 6.75099 24.2728 6.759 23.8252 6.759V6.824ZM24.8332 6.8L24.8418 6.86443C25.087 6.83173 25.2776 6.76524 25.4035 6.65735L25.3612 6.608L25.3189 6.55865C25.2208 6.64276 25.0593 6.70427 24.8246 6.73557L24.8332 6.8ZM25.3612 6.608L25.4035 6.65735C25.5277 6.55088 25.6064 6.4094 25.6409 6.23675L25.5772 6.224L25.5135 6.21125C25.484 6.3586 25.4187 6.47312 25.3189 6.55865L25.3612 6.608ZM25.5772 6.224L25.6399 6.2411C25.6901 6.05706 25.7142 5.81049 25.7142 5.504H25.6492H25.5842C25.5842 5.80551 25.5603 6.03894 25.5145 6.2069L25.5772 6.224ZM25.6492 5.504H25.7142C25.7142 5.18234 25.6902 4.93464 25.6394 4.76532L25.5772 4.784L25.5149 4.80268C25.5601 4.95336 25.5842 5.18566 25.5842 5.504H25.6492ZM25.5772 4.784L25.6411 4.77237C25.6071 4.58492 25.5291 4.43431 25.4035 4.32665L25.3612 4.376L25.3189 4.42535C25.4173 4.50969 25.4833 4.63108 25.5132 4.79563L25.5772 4.784ZM25.3612 4.376L25.4035 4.32665C25.276 4.21736 25.0834 4.15954 24.8375 4.14314L24.8332 4.208L24.8289 4.27285C25.063 4.28846 25.2224 4.34264 25.3189 4.42535L25.3612 4.376ZM24.8332 4.208L24.8424 4.14365C24.6137 4.11098 24.2739 4.095 23.8252 4.095V4.16V4.225C24.2725 4.225 24.6047 4.24102 24.824 4.27235L24.8332 4.208ZM23.8252 4.16V4.095H22.9852V4.16V4.225H23.8252V4.16ZM22.9852 4.16H23.0502V0.487999H22.9852H22.9202V4.16H22.9852ZM22.9852 0.487999V0.552999H25.7212V0.487999V0.422999H22.9852V0.487999ZM25.7212 0.487999V0.552999C27.3214 0.552999 28.5094 0.897523 29.2968 1.57526C30.0824 2.2514 30.4802 3.26878 30.4802 4.64H30.5452H30.6102C30.6102 3.24322 30.204 2.1846 29.3816 1.47673C28.561 0.770476 27.337 0.422999 25.7212 0.422999V0.487999ZM30.5452 4.64H30.4802C30.4802 5.80104 30.2493 6.66414 29.798 7.2399L29.8492 7.28L29.9003 7.3201C30.3771 6.71186 30.6102 5.81496 30.6102 4.64H30.5452ZM29.8492 7.28L29.7974 7.24078C29.3613 7.81701 28.6567 8.22704 27.6739 8.46482L27.6892 8.528L27.7045 8.59118C28.7056 8.34896 29.4411 7.92699 29.901 7.31922L29.8492 7.28ZM27.6892 8.528H27.6242V8.624H27.6892H27.7542V8.528H27.6892ZM27.6892 8.624L27.6746 8.68734C28.7083 8.92589 29.4371 9.29743 29.8723 9.7948L29.9212 9.752L29.9701 9.7092C29.5093 9.18257 28.7501 8.80211 27.7038 8.56066L27.6892 8.624ZM29.9212 9.752L29.8715 9.79387C30.3691 10.3848 30.6242 11.3106 30.6242 12.584H30.6892H30.7542C30.7542 11.2974 30.4972 10.3352 29.9709 9.71013L29.9212 9.752ZM30.6892 12.584H30.6242C30.6242 14.0449 30.2353 15.1289 29.4687 15.8486L29.5132 15.896L29.5577 15.9434C30.359 15.1911 30.7542 14.0671 30.7542 12.584H30.6892ZM29.5132 15.896L29.4687 15.8486C28.7023 16.5681 27.4662 16.935 25.7452 16.935V17V17.065C27.4802 17.065 28.7561 16.6959 29.5577 15.9434L29.5132 15.896ZM25.7452 17V16.935H22.9852V17V17.065H25.7452V17ZM22.9852 17H23.0502V13.328H22.9852H22.9202V17H22.9852Z" fill="#EAEAEA"/>
<defs>
<filter id="filter0_i_221_2" x="0.799683" y="0.422974" width="29.9545" height="20.642" filterUnits="userSpaceOnUse" color-interpolation-filters="sRGB">
<feFlood flood-opacity="0" result="BackgroundImageFix"/>
<feBlend mode="normal" in="SourceGraphic" in2="BackgroundImageFix" result="shape"/>
<feColorMatrix in="SourceAlpha" type="matrix" values="0 0 0 0 0 0 0 0 0 0 0 0 0 0 0 0 0 0 127 0" result="hardAlpha"/>
<feOffset dy="4"/>
<feGaussianBlur stdDeviation="2"/>
<feComposite in2="hardAlpha" operator="arithmetic" k2="-1" k3="1"/>
<feColorMatrix type="matrix" values="0 0 0 0 0 0 0 0 0 0 0 0 0 0 0 0 0 0 0.25 0"/>
<feBlend mode="normal" in2="shape" result="effect1_innerShadow_221_2"/>
</filter>
</defs>
</svg>
